<svg xmlns="http://www.w3.org/2000/svg" width="72" height="70" viewBox="0 0 72 70">
    <g fill="#767676">
        <path d="M27.28 45.31s-.48.2-.19.1l-.2.06c-.198.078-.408.121-.62.13.42.05.14 0 0 0h-1.61c-.31 0 .45.13 0 0-.17-.05-.49-.05-.62-.18l.23.1-.18-.09-.28-.18c-.18-.09-.08-.17.08.08-.09-.1-.19-.19-.3-.27l-.18-.2c-.31-.3.17.27 0 0s-.22-.34-.32-.52c-.044-.078-.084-.158-.12-.24l.1.22c0-.06 0-.12-.07-.19-.1-.227-.159-.472-.17-.72-.05.36 0 .2 0 .06v-.4-.4c0-.14-.06 0 0 .06-.06-.1.13-.59.16-.69l.12-.38c0-.12.12-.56 0-.12.068-.203.166-.395.29-.57.06-.1.14-.21.19-.31.05-.1-.36.35-.07.1.061-.048.118-.102.17-.16.24-.25-.08.1-.12.09-.04-.01.56-.35.61-.37.05-.02.32 0-.06 0 .07 0 .17-.06.25-.08.21-.036.418-.089.62-.16h-.17c.076.01.154.01.23 0 .39 0-.4-.08-.16 0l.39.08.61.17c.09.025.177.058.26.1l-.21-.1.19.09c.418.16.804.394 1.14.69-.3-.34-.13-.1 0 0 .088.071.172.148.25.23.07.07.13.14.2.2s.32.37.11.12c-.21-.25.06.1.08.13l.14.23c.05.08.09.17.13.25.22.36-.1-.35 0 0s.12.44.18.67c.06.23 0-.52 0-.09v.38c.005.083.005.167 0 .25 0 .21-.13.43 0 0-.06.2-.08.41-.14.62-.06.11-.103.228-.13.35 0-.1.21-.42 0 0 0 .09-.34.43-.33.52 0-.15.27-.3.08-.11-.092.082-.178.168-.26.26-.27.3.29-.16.07 0-.22.16-.25.16-.37.23-.947.569-1.254 1.798-.685 2.745.569.947 1.798 1.254 2.745.685 2.32-1.434 3.487-4.174 2.91-6.84-.48-2.69-2.9-4.68-5.39-5.47-1.181-.395-2.459-.395-3.64 0-1.347.42-2.495 1.316-3.23 2.52-1.4 2.47-1.67 5.73.09 8.09 1.028 1.416 2.61 2.328 4.35 2.51 1.68.228 3.392-.054 4.91-.81.905-.575 1.195-1.76.659-2.689-.537-.928-1.71-1.268-2.659-.771l-.06-.01zM48.7 29.78c-.486.175-.984.315-1.49.42-.53.12.28 0 0 0h-.38c-.26.015-.52.015-.78 0 0 0-.52-.05-.19 0s-.15 0-.18-.05c-.198-.026-.39-.083-.57-.17.37.25.13 0 0 0s-.41-.17 0 0c-.08-.055-.154-.119-.22-.19l-.14-.16c-.1-.11-.07-.07.1.13 0 0-.41-.69-.24-.38.17.31 0-.11 0-.15 0-.04-.05-.19-.08-.28l-.19-.29s-.1-.5 0-.17c.1.33 0-.13 0-.17v-.44-1.58c0-.47-.07.34 0 0s.1-.5.18-.75c.039-.083.069-.17.09-.26 0 .31-.14.27 0 .11.14-.16.12-.2.17-.29.05-.09-.34.3 0 0 .074-.056.14-.12.2-.19 0 .12-.29.22-.06.07.23-.15-.29.06 0 0l.22-.08c-.29.1.1 0 .17 0h1.07c.455.083.917.126 1.38.13.2.015.4.015.6 0-.29.07-.34-.06-.13 0l.33.08.32.1c.2 0 .12.14-.1 0 .192.12.393.227.6.32 0 0 .36.3.12.08-.24-.22.08.08.11.11l.19.19.1.1c-.22-.22 0 .07.08.12l.13.23c.05.075.09.155.12.24-.11-.28-.13-.31-.06-.11v.13c0 .11 0 .22.08.32s0 .09 0-.18v.57c.07.07-.13.58-.17.68-.04.1 0 .23-.09.26.113-.26.113-.29 0-.09l-.06.12-.21.37c-.08.12-.22.49 0 .05-.128.2-.29.377-.48.52l-.21.19c-.31.28.3-.17 0 0-.24.147-.486.28-.74.4-.46.267-.794.706-.929 1.22-.135.515-.06 1.061.209 1.52.58.925 1.78 1.24 2.74.72 2.515-1.188 4.07-3.772 3.94-6.55-.262-2.837-2.416-5.135-5.23-5.58-.64-.1-1.27-.05-1.9-.14-.602-.093-1.21-.137-1.82-.13-1.628.015-3.136.86-4 2.24-.669 1.228-1 2.612-.96 4.01-.068 1.37.178 2.739.72 4 1.49 3.26 5.75 3.62 8.74 2.44 1.045-.319 1.66-1.398 1.4-2.46-.15-.512-.5-.943-.969-1.196-.47-.254-1.02-.309-1.531-.154z" transform="translate(-1)"/>
        <path d="M48.7 29.78c-.486.175-.984.315-1.49.42-.53.12.28 0 0 0h-.38c-.26.015-.52.015-.78 0 0 0-.52-.05-.19 0s-.15 0-.18-.05c-.198-.026-.39-.083-.57-.17.37.25.13 0 0 0s-.41-.17 0 0c-.08-.055-.154-.119-.22-.19l-.14-.16c-.1-.11-.07-.07.1.13 0 0-.41-.69-.24-.38.17.31 0-.11 0-.15 0-.04-.05-.19-.08-.28l-.19-.29s-.1-.5 0-.17c.1.33 0-.13 0-.17v-.44-1.58c0-.47-.07.34 0 0s.1-.5.18-.75c.039-.083.069-.17.09-.26 0 .31-.14.27 0 .11.14-.16.12-.2.17-.29.05-.09-.34.3 0 0 .074-.056.14-.12.2-.19 0 .12-.29.22-.06.07.23-.15-.29.06 0 0l.22-.08c-.29.1.1 0 .17 0h1.07c.455.083.917.126 1.38.13.2.015.4.015.6 0-.29.07-.34-.06-.13 0l.33.08.32.1c.2 0 .12.14-.1 0 .192.12.393.227.6.32 0 0 .36.3.12.08-.24-.22.08.08.11.11l.19.19.1.1c-.22-.22 0 .07.08.12l.13.23c.05.075.09.155.12.24-.11-.28-.13-.31-.06-.11v.13c0 .11 0 .22.08.32s0 .09 0-.18v.57c.07.07-.13.58-.17.68-.04.1 0 .23-.09.26.113-.26.113-.29 0-.09l-.06.12-.21.37c-.08.12-.22.49 0 .05-.128.2-.29.377-.48.52l-.21.19c-.31.28.3-.17 0 0-.24.147-.486.28-.74.4-.46.267-.794.706-.929 1.22-.135.515-.06 1.061.209 1.52.58.925 1.78 1.24 2.74.72 2.515-1.188 4.07-3.772 3.94-6.55-.262-2.837-2.416-5.135-5.23-5.58-.64-.1-1.27-.05-1.9-.14-.602-.093-1.21-.137-1.82-.13-1.628.015-3.136.86-4 2.24-.669 1.228-1 2.612-.96 4.01-.068 1.37.178 2.739.72 4 1.49 3.26 5.75 3.62 8.74 2.44 1.045-.319 1.66-1.398 1.4-2.46-.15-.512-.5-.943-.969-1.196-.47-.254-1.02-.309-1.531-.154z" transform="translate(-1)"/>
        <path d="M66.21 31.38c-1.172-2.373-2.688-4.56-4.5-6.49-1.54-1.81-3.22-3.7-4-6-.344-1.443-.826-2.85-1.44-4.2-.722-1.225-1.701-2.28-2.87-3.09-2.489-1.605-5.37-2.497-8.33-2.58-2.85-.23-5.64 0-8.48 0-3.12 0-6.14-.39-9.26.07-5.69.85-10.29 4.81-13.23 9.59-1.598 2.724-2.86 5.632-3.76 8.66-1.06 3.075-1.864 6.232-2.4 9.44-.5 3.33.1 6.732 1.71 9.69 1.441 2.708 3.208 5.23 5.26 7.51 4 4.56 9.74 6.77 15.56 8.08 6.42 1.44 12.92 2.33 19.23-.08 5.616-2.162 10.395-6.062 13.64-11.13 3.47-5.42 5.5-12.79 3-19-.319-1.045-1.398-1.66-2.46-1.4-.512.14-.947.478-1.21.94-.263.461-.331 1.008-.19 1.52 1.91 4.82.59 10.26-1.87 14.64-2.276 4.046-5.658 7.358-9.75 9.55-2.248 1.2-4.688 1.999-7.21 2.36-3.012.279-6.049.083-9-.58-5-.94-10.33-2.1-14.43-5.28-2.023-1.692-3.773-3.685-5.19-5.91-1.52-2.24-3.09-4.7-3.32-7.47-.24-3 .77-6 1.56-8.81.688-2.662 1.59-5.264 2.7-7.78 2-4.28 5.17-8.53 9.82-10.07 2.718-.74 5.553-.95 8.35-.62 2.51.15 5-.09 7.49-.08 2.79 0 6 .08 8.49 1.42 1.101.534 2.022 1.379 2.65 2.43.492 1.222.903 2.474 1.23 3.75 1.9 5 6.61 8.09 8.72 12.93.267.46.706.794 1.22.929.515.135 1.061.06 1.52-.209.94-.564 1.27-1.766.75-2.73z" transform="translate(-1)"/>
        <path d="M27.28 45.31s-.48.2-.19.1l-.2.06c-.198.078-.408.121-.62.13.42.05.14 0 0 0h-1.61c-.31 0 .45.13 0 0-.17-.05-.49-.05-.62-.18l.23.1-.18-.09-.28-.18c-.18-.09-.08-.17.08.08-.09-.1-.19-.19-.3-.27l-.18-.2c-.31-.3.17.27 0 0s-.22-.34-.32-.52c-.044-.078-.084-.158-.12-.24l.1.22c0-.06 0-.12-.07-.19-.1-.227-.159-.472-.17-.72-.05.36 0 .2 0 .06v-.4-.4c0-.14-.06 0 0 .06-.06-.1.13-.59.16-.69l.12-.38c0-.12.12-.56 0-.12.068-.203.166-.395.29-.57.06-.1.14-.21.19-.31.05-.1-.36.35-.07.1.061-.048.118-.102.17-.16.24-.25-.08.1-.12.09-.04-.01.56-.35.61-.37.05-.02.32 0-.06 0 .07 0 .17-.06.25-.08.21-.036.418-.089.62-.16h-.17c.076.01.154.01.23 0 .39 0-.4-.08-.16 0l.39.08.61.17c.09.025.177.058.26.1l-.21-.1.19.09c.418.16.804.394 1.14.69-.3-.34-.13-.1 0 0 .088.071.172.148.25.23.07.07.13.14.2.2s.32.37.11.12c-.21-.25.06.1.08.13l.14.23c.05.08.09.17.13.25.22.36-.1-.35 0 0s.12.44.18.67c.06.23 0-.52 0-.09v.38c.005.083.005.167 0 .25 0 .21-.13.43 0 0-.06.2-.08.41-.14.62-.06.11-.103.228-.13.35 0-.1.21-.42 0 0 0 .09-.34.43-.33.52 0-.15.27-.3.08-.11-.092.082-.178.168-.26.26-.27.3.29-.16.07 0-.22.16-.25.16-.37.23-.947.569-1.254 1.798-.685 2.745.569.947 1.798 1.254 2.745.685 2.32-1.434 3.487-4.174 2.91-6.84-.48-2.69-2.9-4.68-5.39-5.47-1.181-.395-2.459-.395-3.64 0-1.347.42-2.495 1.316-3.23 2.52-1.4 2.47-1.67 5.73.09 8.09 1.028 1.416 2.61 2.328 4.35 2.51 1.68.228 3.392-.054 4.91-.81.905-.575 1.195-1.76.659-2.689-.537-.928-1.71-1.268-2.659-.771l-.06-.01zM48.7 29.78c-.486.175-.984.315-1.49.42-.53.12.28 0 0 0h-.38c-.26.015-.52.015-.78 0 0 0-.52-.05-.19 0s-.15 0-.18-.05c-.198-.026-.39-.083-.57-.17.37.25.13 0 0 0s-.41-.17 0 0c-.08-.055-.154-.119-.22-.19l-.14-.16c-.1-.11-.07-.07.1.13 0 0-.41-.69-.24-.38.17.31 0-.11 0-.15 0-.04-.05-.19-.08-.28l-.19-.29s-.1-.5 0-.17c.1.33 0-.13 0-.17v-.44-1.58c0-.47-.07.34 0 0s.1-.5.18-.75c.039-.083.069-.17.09-.26 0 .31-.14.27 0 .11.14-.16.12-.2.17-.29.05-.09-.34.3 0 0 .074-.056.14-.12.2-.19 0 .12-.29.22-.06.07.23-.15-.29.06 0 0l.22-.08c-.29.1.1 0 .17 0h1.07c.455.083.917.126 1.38.13.2.015.4.015.6 0-.29.07-.34-.06-.13 0l.33.08.32.1c.2 0 .12.14-.1 0 .192.12.393.227.6.32 0 0 .36.3.12.08-.24-.22.08.08.11.11l.19.19.1.1c-.22-.22 0 .07.08.12l.13.23c.05.075.09.155.12.24-.11-.28-.13-.31-.06-.11v.13c0 .11 0 .22.08.32s0 .09 0-.18v.57c.07.07-.13.58-.17.68-.04.1 0 .23-.09.26.113-.26.113-.29 0-.09l-.06.12-.21.37c-.08.12-.22.49 0 .05-.128.2-.29.377-.48.52l-.21.19c-.31.28.3-.17 0 0-.24.147-.486.28-.74.4-.46.267-.794.706-.929 1.22-.135.515-.06 1.061.209 1.52.58.925 1.78 1.24 2.74.72 2.515-1.188 4.07-3.772 3.94-6.55-.262-2.837-2.416-5.135-5.23-5.58-.64-.1-1.27-.05-1.9-.14-.602-.093-1.21-.137-1.82-.13-1.628.015-3.136.86-4 2.24-.669 1.228-1 2.612-.96 4.01-.068 1.37.178 2.739.72 4 1.49 3.26 5.75 3.62 8.74 2.44 1.045-.319 1.66-1.398 1.4-2.46-.15-.512-.5-.943-.969-1.196-.47-.254-1.02-.309-1.531-.154z" transform="translate(-1)"/>
        <path d="M27.28 45.31s-.48.2-.19.1l-.2.06c-.198.078-.408.121-.62.13.42.05.14 0 0 0h-1.61c-.31 0 .45.13 0 0-.17-.05-.49-.05-.62-.18l.23.1-.18-.09-.28-.18c-.18-.09-.08-.17.08.08-.09-.1-.19-.19-.3-.27l-.18-.2c-.31-.3.17.27 0 0s-.22-.34-.32-.52c-.044-.078-.084-.158-.12-.24l.1.22c0-.06 0-.12-.07-.19-.1-.227-.159-.472-.17-.72-.05.36 0 .2 0 .06v-.4-.4c0-.14-.06 0 0 .06-.06-.1.13-.59.16-.69l.12-.38c0-.12.12-.56 0-.12.068-.203.166-.395.29-.57.06-.1.14-.21.19-.31.05-.1-.36.35-.07.1.061-.048.118-.102.17-.16.24-.25-.08.1-.12.09-.04-.01.56-.35.61-.37.05-.02.32 0-.06 0 .07 0 .17-.06.25-.08.21-.036.418-.089.62-.16h-.17c.076.01.154.01.23 0 .39 0-.4-.08-.16 0l.39.08.61.17c.09.025.177.058.26.1l-.21-.1.19.09c.418.16.804.394 1.14.69-.3-.34-.13-.1 0 0 .088.071.172.148.25.23.07.07.13.14.2.2s.32.37.11.12c-.21-.25.06.1.08.13l.14.23c.05.08.09.17.13.25.22.36-.1-.35 0 0s.12.44.18.67c.06.23 0-.52 0-.09v.38c.005.083.005.167 0 .25 0 .21-.13.43 0 0-.06.2-.08.41-.14.62-.06.11-.103.228-.13.35 0-.1.21-.42 0 0 0 .09-.34.43-.33.52 0-.15.27-.3.08-.11-.092.082-.178.168-.26.26-.27.3.29-.16.07 0-.22.16-.25.16-.37.23-.947.569-1.254 1.798-.685 2.745.569.947 1.798 1.254 2.745.685 2.32-1.434 3.487-4.174 2.91-6.84-.48-2.69-2.9-4.68-5.39-5.47-1.181-.395-2.459-.395-3.64 0-1.347.42-2.495 1.316-3.23 2.52-1.4 2.47-1.67 5.73.09 8.09 1.028 1.416 2.61 2.328 4.35 2.51 1.68.228 3.392-.054 4.91-.81.905-.575 1.195-1.76.659-2.689-.537-.928-1.71-1.268-2.659-.771l-.06-.01zM41.34 52.78c2.21 0 4-1.79 4-4s-1.79-4-4-4-4 1.79-4 4 1.79 4 4 4zM45.25 40.23c2.55 0 2.55-4 0-4-1.105 0-2 .895-2 2s.895 2 2 2z" transform="translate(-1)"/>
        <path d="M45.25 41.4c3.83 0 3.83-6 0-6s-3.84 6 0 6zM28.6 33.19c2.761 0 5-2.239 5-5s-2.239-5-5-5-5 2.239-5 5 2.239 5 5 5zM25.75 10.48c-.3-.31-.57-.64-.85-1 .11.13.14.19 0 0-.069-.082-.132-.17-.19-.26-.13-.14-.254-.288-.37-.44-.23-.36-.45-.73-.65-1.11l-.29-.57-.06-.32c-.16-.34.06.19 0 0-.302-.802-.55-1.624-.74-2.46l-.12-.63v-.13-.14c0-.45-.07-.91-.08-1.36 0-1.105-.895-2-2-2s-2 .895-2 2c.06 4.208 1.702 8.239 4.6 11.29.796.632 1.94.567 2.658-.152.719-.719.784-1.862.152-2.658l-.06-.06zM36.09 10.21c-.028-.089-.051-.179-.07-.27v.12c-.07-.09 0-.44 0-.55v-.55c-.005-.093-.005-.187 0-.28v.11c.014-.38.088-.754.22-1.11.08-.35.17-.7.25-1 .503-1.674.646-3.436.42-5.17C36.609.462 35.524-.152 34.47.13c-1.052.297-1.672 1.383-1.39 2.44v-.11c.005.093.005.187 0 .28v1c.005.093.005.187 0 .28-.12.73-.32 1.45-.49 2.17-.51 1.662-.6 3.425-.26 5.13.301 1.048 1.386 1.662 2.44 1.38 1.052-.297 1.672-1.383 1.39-2.44l-.07-.05zM46.26 10.58c-.01-.157-.01-.313 0-.47l-.07.53c.03-.218.09-.43.18-.63l-.2.47c.152-.327.34-.635.56-.92l-.31.41c.53-.67 1.12-1.29 1.69-1.92l1.81-2c.769-.779.769-2.031 0-2.81-.778-.762-2.022-.762-2.8 0l-2.84 3.14c-1 1.15-2.16 2.54-2 4.2.012.523.22 1.022.58 1.4.373.37.875.578 1.4.58.525-.002 1.027-.21 1.4-.58.382-.364.593-.872.58-1.4h.02zM16.83 18.78L10 10.87c-.779-.769-2.031-.769-2.81 0-.769.779-.769 2.031 0 2.81l6.83 7.91c.779.769 2.031.769 2.81 0 .769-.779.769-2.031 0-2.81zM13.16 26.29c-3.13-1.767-6.593-2.86-10.17-3.21-1.105 0-2 .895-2 2 .031 1.091.909 1.969 2 2l.65.07h.12l1.14.21c.77.17 1.54.37 2.3.61l1.08.38.54.21c.21.09.2.08 0 0l.23.1c.725.322 1.433.682 2.12 1.08.928.4 2.01.044 2.518-.83.51-.873.287-1.989-.518-2.6l-.01-.02zM9.45 37.3c-2.238-.228-4.499-.062-6.68.49-.764.114-1.393.657-1.619 1.395-.225.738-.005 1.54.565 2.06s1.39.667 2.104.375c.66-.16 1.327-.283 2-.37l-.53.07c1.393-.18 2.802-.2 4.2-.06.526.006 1.032-.204 1.4-.58.373-.37.585-.874.59-1.4-.005-.526-.217-1.03-.59-1.4-.383-.353-.88-.559-1.4-.58h-.04zM10.67 47.96c-1.437 2.097-2.682 4.32-3.72 6.64-.255.467-.326 1.013-.2 1.53.138.5.464.926.91 1.19.94.521 2.122.208 2.68-.71 1.039-2.318 2.28-4.54 3.71-6.64.548-.948.231-2.16-.71-2.72-.946-.541-2.151-.225-2.71.71h.04zM21.34 58.84l.23 7.6c0 1.105.895 2 2 2s2-.895 2-2l-.23-7.6c0-1.105-.895-2-2-2s-2 .895-2 2zM33.96 62.83c.755.698 1.45 1.457 2.08 2.27l-.31-.41c.95 1.234 1.748 2.577 2.38 4 .412.678 1.185 1.049 1.972.945.786-.104 1.437-.663 1.658-1.425.104-.518.034-1.056-.2-1.53-1.121-2.527-2.744-4.8-4.77-6.68-.796-.632-1.94-.567-2.658.152-.719.719-.784 1.862-.152 2.658v.02zM50.47 58.68c.157 2.44.652 4.846 1.47 7.15.155.49.477.912.91 1.19.466.26 1.013.33 1.53.2 1.052-.297 1.672-1.383 1.39-2.44-.586-1.619-1.002-3.295-1.24-5l.07.52c-.07-.53-.12-1.06-.16-1.59-.008-.526-.215-1.03-.58-1.41-.574-.555-1.422-.715-2.158-.409-.737.307-1.22 1.021-1.232 1.819v-.03zM61.82 52.91c.25-.06.5-.1.76-.14l-.53.07c.8-.105 1.61-.105 2.41 0l-.52-.06c.761.11 1.507.312 2.22.6l-.48-.2c.37.16.73.34 1.08.54.613.483 1.452.565 2.147.21.696-.355 1.12-1.082 1.09-1.862-.032-.78-.515-1.47-1.237-1.768-2.417-1.402-5.275-1.838-8-1.22-1.065.283-1.7 1.374-1.42 2.44.297 1.052 1.383 1.672 2.44 1.39h.04zM65.65 42.7c1.667-.07 3.336-.05 5 .06.525-.002 1.027-.21 1.4-.58.377-.37.592-.872.6-1.4 0-1.105-.895-2-2-2-1.664-.11-3.333-.13-5-.06-.526.01-1.029.218-1.41.58-.365.375-.573.876-.58 1.4 0 1.105.895 2 2 2h-.01zM65.61 32.41l.18-.14-.4.31c.77-.59 1.609-1.08 2.5-1.46l-.47.2c.591-.23 1.2-.41 1.82-.54.496-.14.919-.466 1.18-.91.394-.698.333-1.564-.155-2.2-.488-.637-1.309-.92-2.085-.72-.983.229-1.94.564-2.85 1-.903.456-1.752 1.013-2.53 1.66-.37.373-.578.875-.58 1.4.002.525.21 1.027.58 1.4.375.372.882.58 1.41.58l.53-.07c.33-.09.63-.266.87-.51zM60.21 25.71c.17-.14.34-.28.52-.41l-.41.31c.97-.76 2.007-1.43 3.1-2 .442-.252.77-.664.92-1.15.135-.517.063-1.066-.2-1.53-.264-.446-.69-.772-1.19-.91-.514-.12-1.054-.049-1.52.2-1.425.748-2.766 1.647-4 2.68-.769.779-.769 2.031 0 2.81.373.37.875.578 1.4.58l.53-.07c.329-.093.628-.268.87-.51h-.02zM56.39 17.68c1.058-1.225 2.238-2.341 3.52-3.33l-.4.31.15-.13c.229-.117.422-.293.56-.51.175-.189.3-.42.36-.67.14-.534.053-1.102-.24-1.57-.264-.446-.69-.772-1.19-.91-.515-.153-1.071-.08-1.53.2-1.485 1.107-2.849 2.367-4.07 3.76-.36.382-.567.885-.58 1.41 0 1.105.895 2 2 2 .525-.002 1.027-.21 1.4-.58l.02.02z" transform="translate(-1)"/>
    </g>
</svg>
