<svg xmlns="http://www.w3.org/2000/svg" width="24" height="24" viewBox="0 0 24 24">
    <g fill="none">
        <path fill="#31445C" d="M10.105 20.21c2.332 0 4.476-.802 6.186-2.132l5.553 5.553 1.786-1.786-5.553-5.553c1.331-1.711 2.134-3.855 2.134-6.187C20.21 4.533 15.677 0 10.105 0S0 4.533 0 10.105s4.533 10.106 10.105 10.106zm0-17.684c4.18 0 7.58 3.4 7.58 7.58s-3.4 7.578-7.58 7.578-7.579-3.399-7.579-7.579 3.4-7.579 7.58-7.579z"/>
        <path fill="#20A9D4" d="M11.889 8.32c.479.48.743 1.113.743 1.785h2.526c0-1.345-.526-2.613-1.483-3.572-1.912-1.91-5.228-1.91-7.14 0L8.32 8.322c.96-.958 2.615-.955 3.57-.003z"/>
    </g>
</svg>
