<svg xmlns="http://www.w3.org/2000/svg" width="25" height="15" viewBox="0 0 25 15">
    <g fill="none" fill-rule="evenodd">
        <path fill="#31445C" d="M1.5 9h17c.828 0 1.5-.672 1.5-1.5S19.328 6 18.5 6h-17C.672 6 0 6.672 0 7.5S.672 9 1.5 9z"/>
        <path fill="#20A9D4" d="M1.63 3.26h21.74c.9 0 1.63-.73 1.63-1.63C25 .73 24.27 0 23.37 0H1.63C.73 0 0 .73 0 1.63c0 .9.73 1.63 1.63 1.63z"/>
        <path fill="#31445C" d="M1.5 15h13c.828 0 1.5-.672 1.5-1.5s-.672-1.5-1.5-1.5h-13c-.828 0-1.5.672-1.5 1.5S.672 15 1.5 15z"/>
    </g>
</svg>
