<svg xmlns="http://www.w3.org/2000/svg" xmlns:xlink="http://www.w3.org/1999/xlink" width="16" height="17" viewBox="0 0 16 17">
    <defs>
        <path id="prefix__a" d="M0 0L16 0 16 17 0 17z"/>
    </defs>
    <g fill="none" fill-rule="evenodd">
        <mask id="prefix__b" fill="#fff">
            <use xlink:href="#prefix__a"/>
        </mask>
        <path fill="#9C9CAA" d="M11.06 2.815l.576-.61c.612-.65 1.679-.65 2.291 0l-.002-.003c.612.65.612 1.785 0 2.436l-.574.611-2.291-2.434zm-8.528 9.478l1.581.336.317 1.68-2.53.672.632-2.688zm1.999-1.31l-.967-.204 6.364-6.762.581.617-5.978 6.35zm1.131 1.203l5.978-6.35.58.615-6.364 6.762-.194-1.027zm9.396-11.185C14.45.355 13.641 0 12.781 0c-.86 0-1.67.355-2.277 1.002L1.375 10.7c-.102.11-.175.245-.21.395L.023 15.944c-.067.29.013.596.212.806.197.212.487.297.759.225l4.564-1.213c.14-.037.268-.115.371-.224l9.129-9.698c.608-.646.942-1.506.942-2.42 0-.913-.334-1.773-.943-2.42l.001.001z" mask="url(#prefix__b)"/>
    </g>
</svg>
