<svg xmlns="http://www.w3.org/2000/svg" xmlns:xlink="http://www.w3.org/1999/xlink" width="48" height="56" viewBox="0 0 48 56">
    <defs>
        <path id="prefix__a" d="M0 0.616L27 0.616 27 13 0 13z"/>
    </defs>
    <g fill="none" fill-rule="evenodd">
        <path fill="#A9A9A9" d="M48 40.633V15.365c0-.976-.507-1.877-1.332-2.365L25.332.366c-.824-.488-1.84-.488-2.664 0L1.328 13.002C.507 13.489 0 14.388 0 15.362v25.273c0 .975.506 1.875 1.33 2.363L22.67 55.635c.823.487 1.835.487 2.658 0l21.339-12.636c.824-.488 1.332-1.39 1.332-2.366"/>
        <g transform="translate(10 34)"/>
        <g fill-rule="nonzero">
            <path fill="#FFF" d="M24 7h-8.5C10.807 7 7 10.807 7 15.5s3.807 8.5 8.5 8.5 8.5-3.807 8.5-8.5V7z" transform="translate(10 11)"/>
            <path fill="#92C6FF" d="M.768 36.682C3.461 32.038 8.714 28 14.5 28s9.207 2.413 11.9 7.057l.94 1.49C19.57 41.666 15.143 44.2 14.065 44.15c-1.079-.049-5.511-2.538-13.297-7.468z" transform="translate(10 11)"/>
            <path fill="#444B54" d="M26.696 37c-.341 0-.717-.18-.888-.54-2.427-4.473-6.938-7.25-11.791-7.25-4.853 0-9.364 2.777-11.79 7.25-.274.504-.924.684-1.402.396-.479-.289-.65-.974-.376-1.479 2.768-5.12 7.963-8.33 13.568-8.33 5.605 0 10.8 3.21 13.568 8.33.273.505.103 1.19-.376 1.479-.17.108-.342.144-.513.144zM8.378 21.637c.444-.288.478-1.01.17-1.478-.888-1.226-1.366-2.74-1.366-4.292 0-.396.307-.685.65-.685h2.46c1.06 0 2.187-.144 3.315-.505 2.256-.72 4.101-2.163 5.229-3.858.137-.217.273-.397.376-.613.273-.505.888-.758 1.367-.505.547.288.718.973.444 1.514-.17.325-.376.65-.58.938-.206.289-.24.685-.103 1.046.341.865.512 1.839.478 2.849-.068 3.39-2.46 6.347-5.639 6.924-1.025.18-2.05.144-3.042-.145-.512-.144-1.093.109-1.298.65-.205.577.102 1.226.683 1.406.786.252 1.606.36 2.46.36 2.632 0 4.99-1.225 6.631-3.137.684.253 1.435.325 2.256.217 2.392-.325 4.272-2.453 4.443-4.977.102-1.37-.308-2.596-.992-3.606 1.094-1.046 1.743-2.56 1.675-4.22-.068-2.163-1.435-4.075-3.383-4.832-1.026-.397-1.983-.433-2.871-.216C20.135 1.767 17.264 0 14.017 0S7.899 1.767 6.259 4.472c-.889-.217-1.88-.217-2.905.216C1.44 5.481.073 7.357.004 9.557c-.068 1.658.616 3.173 1.675 4.219C.927 14.858.552 16.192.722 17.67c.274 2.416 2.12 4.363 4.41 4.688 1.024.144 1.981-.036 2.802-.433 0-.072.239-.18.444-.289z" transform="translate(10 11)"/>
        </g>
    </g>
</svg>
